<svg width="20" height="21" viewBox="0 0 20 21" fill="none" xmlns="http://www.w3.org/2000/svg">
<g id="check_circle">
<mask id="mask0_2656_4038" style="mask-type:alpha" maskUnits="userSpaceOnUse" x="0" y="0" width="20" height="21">
<rect id="Bounding box" y="0.5" width="20" height="20" fill="#D9D9D9"/>
</mask>
<g mask="url(#mask0_2656_4038)">
<path id="check_circle_2" d="M8.9375 11.375L7.6875 10.1458C7.53472 9.99306 7.36111 9.91667 7.16667 9.91667C6.97222 9.91667 6.79861 9.99306 6.64583 10.1458C6.49306 10.2986 6.41667 10.4757 6.41667 10.6771C6.41667 10.8785 6.49306 11.0556 6.64583 11.2083L8.41667 12.9792C8.56944 13.1319 8.74306 13.2083 8.9375 13.2083C9.13194 13.2083 9.30556 13.1319 9.45833 12.9792L13.3542 9.08333C13.5069 8.93056 13.5833 8.75347 13.5833 8.55208C13.5833 8.35069 13.5069 8.17361 13.3542 8.02083C13.2014 7.86806 13.0278 7.79167 12.8333 7.79167C12.6389 7.79167 12.4653 7.86806 12.3125 8.02083L8.9375 11.375ZM10 18.5C8.90278 18.5 7.86806 18.2917 6.89583 17.875C5.92361 17.4583 5.07292 16.8854 4.34375 16.1562C3.61458 15.4271 3.04167 14.5764 2.625 13.6042C2.20833 12.6319 2 11.5972 2 10.5C2 9.38889 2.20833 8.35069 2.625 7.38542C3.04167 6.42014 3.61458 5.57292 4.34375 4.84375C5.07292 4.11458 5.92361 3.54167 6.89583 3.125C7.86806 2.70833 8.90278 2.5 10 2.5C11.1111 2.5 12.1493 2.70833 13.1146 3.125C14.0799 3.54167 14.9271 4.11458 15.6562 4.84375C16.3854 5.57292 16.9583 6.42014 17.375 7.38542C17.7917 8.35069 18 9.38889 18 10.5C18 11.5972 17.7917 12.6319 17.375 13.6042C16.9583 14.5764 16.3854 15.4271 15.6562 16.1562C14.9271 16.8854 14.0799 17.4583 13.1146 17.875C12.1493 18.2917 11.1111 18.5 10 18.5Z" fill="#2196F3"/>
</g>
</g>
</svg>
