<svg width="110" height="103" viewBox="0 0 110 103" fill="none" xmlns="http://www.w3.org/2000/svg">
<g id="Group 3" filter="url(#filter0_d_2656_4022)">
<path id="Union" d="M17 35.0197C17 33.4063 17.8063 31.8996 19.1486 31.0045L47.8601 11.8589C52.1835 8.97591 57.8165 8.97591 62.1399 11.8589L90.8514 31.0045C92.1937 31.8996 93 33.4063 93 35.0197V45.035L55 67.9362L17 45.035V35.0197Z" fill="#1E88E5"/>
<path id="Intersect" d="M17 34.1917C17 32.5783 17.8063 31.0716 19.1486 30.1765L47.8601 11.0309C52.1835 8.14791 57.8165 8.14791 62.1399 11.0309L90.8514 30.1765C92.1937 31.0716 93 32.5783 93 34.1917V44.207L55 67.1082L17 44.207V34.1917Z" fill="#1976D2"/>
<g id="Mask Group">
<mask id="mask0_2656_4022" style="mask-type:alpha" maskUnits="userSpaceOnUse" x="17" y="34" width="76" height="51">
<path id="Rectangle 5" d="M93 34.4204H17V71.2282C17 75.733 17 77.9854 17.8767 79.706C18.6478 81.2195 19.8783 82.45 21.3918 83.2211C23.1124 84.0978 25.3648 84.0978 29.8696 84.0978H80.1304C84.6352 84.0978 86.8876 84.0978 88.6082 83.2211C90.1217 82.45 91.3522 81.2195 92.1233 79.706C93 77.9854 93 75.733 93 71.2283V34.4204Z" fill="#C4C4C4"/>
</mask>
<g mask="url(#mask0_2656_4022)">
<g id="Group 1">
<path id="Rectangle 1" d="M93 35.3428L17 84.9258H93V35.3428Z" fill="#FAFAFA"/>
<path id="Rectangle 2" d="M17 35.3423L93 84.9253H17V35.3423Z" fill="#FAFAFA"/>
<g id="Group 5">
<rect id="Rectangle 3" width="12" height="2.39544" rx="1.19772" transform="matrix(-1 0 0 1 38 68)" fill="#424242"/>
<rect id="Rectangle 4" width="24" height="2.39544" rx="1.19772" transform="matrix(-1 0 0 1 50 73.3955)" fill="#424242"/>
</g>
<path id="Vector 1" d="M59.8281 56.9913L93 84.9258L55 60.1343L59.8281 56.9913Z" fill="#EEEEEE"/>
</g>
</g>
</g>
</g>
<defs>
<filter id="filter0_d_2656_4022" x="0.913044" y="0.825174" width="108.174" height="107.403" filterUnits="userSpaceOnUse" color-interpolation-filters="sRGB">
<feFlood flood-opacity="0" result="BackgroundImageFix"/>
<feColorMatrix in="SourceAlpha" type="matrix" values="0 0 0 0 0 0 0 0 0 0 0 0 0 0 0 0 0 0 127 0" result="hardAlpha"/>
<feOffset dy="8.04348"/>
<feGaussianBlur stdDeviation="8.04348"/>
<feComposite in2="hardAlpha" operator="out"/>
<feColorMatrix type="matrix" values="0 0 0 0 0.117647 0 0 0 0 0.533333 0 0 0 0 0.898039 0 0 0 0.2 0"/>
<feBlend mode="normal" in2="BackgroundImageFix" result="effect1_dropShadow_2656_4022"/>
<feBlend mode="normal" in="SourceGraphic" in2="effect1_dropShadow_2656_4022" result="shape"/>
</filter>
</defs>
</svg>
